HIERARCHY
ROOT hip
{
	OFFSET 0.000000 0.000000 0.000000 
	CHANNELS 6 Xposition Yposition Zposition Xrotation Zrotation Yrotation
	JOINT abdomen
	{
		OFFSET 0.000000 3.402643 0.000000 
		CHANNELS 3 Xrotation Zrotation Yrotation
		JOINT chest
		{
			OFFSET 0.000000 8.438565 -0.680529 
			CHANNELS 3 Xrotation Zrotation Yrotation
			JOINT neck
			{
				OFFSET 0.000000 10.207942 -0.272212 
				CHANNELS 3 Xrotation Zrotation Yrotation
				JOINT head
				{
					OFFSET 0.000000 3.130431 0.000000 
					CHANNELS 3 Xrotation Zrotation Yrotation
					End Site
					{
						OFFSET 0.000000 3.130435 0.000000 
					}
				}
			}
			JOINT lCollar
			{
				OFFSET 3.470700 6.669187 -0.816635 
				CHANNELS 3 Yrotation Zrotation Xrotation
				JOINT lShldr
				{
					OFFSET 3.198488 0.000000 0.000000 
					CHANNELS 3 Zrotation Yrotation Xrotation
					JOINT lForeArm
					{
						OFFSET 10.139888 0.000000 0.000000 
						CHANNELS 3 Yrotation Zrotation Xrotation
						JOINT lHand
						{
							OFFSET 8.370511 0.000000 0.000000 
							CHANNELS 3 Zrotation Yrotation Xrotation
							End Site
							{
								OFFSET 4.083176 0.000000 0.000000 
							}
						}
					}
				}
			}
			JOINT rCollar
			{
				OFFSET -3.470700 6.669187 -0.816635 
				CHANNELS 3 Yrotation Zrotation Xrotation
				JOINT rShldr
				{
					OFFSET -3.198488 0.000000 0.000000 
					CHANNELS 3 Zrotation Yrotation Xrotation
					JOINT rForeArm
					{
						OFFSET -10.139888 0.000000 0.000000 
						CHANNELS 3 Yrotation Zrotation Xrotation
						JOINT rHand
						{
							OFFSET -8.370511 0.000000 0.000000 
							CHANNELS 3 Zrotation Yrotation Xrotation
							End Site
							{
								OFFSET -4.083176 0.000000 0.000000 
							}
						}
					}
				}
			}
		}
	}
	JOINT lThigh
	{
		OFFSET 5.308129 -1.633274 1.361059 
		CHANNELS 3 Xrotation Zrotation Yrotation
		JOINT lShin
		{
			OFFSET -2.041588 -20.007561 0.000000 
			CHANNELS 3 Xrotation Zrotation Yrotation
			JOINT lFoot
			{
				OFFSET 0.000000 -19.190928 -1.224953 
				CHANNELS 3 Xrotation Yrotation Zrotation
				End Site
				{
					OFFSET 0.000000 -2.449906 4.627600 
				}
			}
		}
	}
	JOINT rThigh
	{
		OFFSET -5.308129 -1.633274 1.361059 
		CHANNELS 3 Xrotation Zrotation Yrotation
		JOINT rShin
		{
			OFFSET 2.041588 -20.007561 0.000000 
			CHANNELS 3 Xrotation Zrotation Yrotation
			JOINT rFoot
			{
				OFFSET 0.000000 -19.190928 -1.224953 
				CHANNELS 3 Xrotation Yrotation Zrotation
				End Site
				{
					OFFSET 0.000000 -2.449906 4.627600 
				}
			}
		}
	}
}
MOTION
Frames: 8
Frame Time: 0.011111
30.776901 53.286221 -3.322117 -5.903904 1.038112 -22.635548 27.253447 -0.619382 2.503876 -19.225523 1.028204 0.782247 -12.013031 1.420040 6.399154 3.280527 -5.519710 12.888717 0.736540 -9.814158 1.078738 -70.187157 -31.523472 13.958115 -55.990364 8.817513 10.639510 8.524705 12.647240 -19.202526 -3.299667 11.850037 1.750699 57.056736 31.838261 37.777313 54.259319 -8.557743 9.914743 -8.534408 -12.637552 60.062363 -1.960970 4.926375 2.783201 16.952108 -5.869875 -3.095865 -13.568663 16.281267 0.150868 10.883316 -5.388508 -7.128445 16.812893 5.856800 3.042976 -27.745232 -12.653022 -3.700194 
30.774343 53.315311 -3.327552 -6.262938 1.694664 -22.808634 27.284895 -1.627739 2.125738 -19.264471 1.165513 0.790489 -12.218007 1.531967 6.343831 3.635976 -5.352696 12.803106 0.736540 -9.814158 1.078738 -69.841179 -31.706213 14.037894 -56.531693 8.897526 10.881198 8.524705 12.647240 -19.436901 -3.299667 11.850037 1.750699 56.988190 32.172085 37.936474 54.893333 -8.663703 10.184739 -8.534408 -12.637552 60.003765 -1.180415 4.115371 2.845802 15.916385 -5.901268 -2.928412 -13.374541 16.494091 0.124094 10.382612 -6.245849 -7.325496 17.636038 5.825100 3.180831 -28.148006 -12.236786 -3.672910 
30.785215 53.313076 -3.350569 -6.356052 1.629293 -22.936169 27.430342 -1.657379 2.205136 -19.264444 1.194989 0.819608 -12.521974 1.828917 6.215746 4.017623 -5.843842 12.608600 0.736540 -9.814158 1.078738 -69.601479 -32.046074 14.651076 -57.060909 8.962150 11.099463 8.524705 12.647240 -19.153698 -3.299667 11.850037 1.750699 56.654800 32.639275 38.078232 55.516510 -8.757717 10.447502 -8.534408 -12.637552 60.130718 -1.132049 4.156086 2.905363 16.041248 -5.900693 -2.949575 -13.836384 16.506897 0.267297 10.562016 -6.218451 -7.110282 17.437931 5.833937 3.154708 -28.155434 -12.266173 -3.706715 
30.797043 53.327457 -3.384775 -6.191577 0.995509 -23.268421 27.568558 -1.017935 2.727355 -19.323217 0.981408 0.878491 -12.649515 2.035267 6.177905 4.237910 -6.137187 12.563609 0.736540 -9.814158 1.078738 -69.233963 -32.384869 15.482594 -57.570709 9.026555 11.324756 8.524705 12.647240 -18.733776 -3.299667 11.850037 1.750699 56.288704 33.029018 38.321320 56.332211 -8.877159 10.801897 -8.534408 -12.637552 60.492043 -1.034816 4.879035 3.070035 15.739291 -5.900928 -2.912483 -14.304653 16.663086 0.446519 10.554901 -5.585100 -6.612021 17.625757 5.825076 3.179951 -28.160084 -12.314153 -3.716915 
30.815901 53.330334 -3.408111 -6.118628 0.897277 -23.666115 27.504047 -0.997236 2.973241 -19.303795 0.844859 0.948099 -12.761518 2.502656 6.020430 4.540715 -6.904660 12.349852 0.736540 -9.814158 1.078738 -68.748428 -32.722656 16.176363 -58.314583 9.112178 11.655220 8.524705 12.647240 -18.421278 -3.299667 11.850037 1.750699 56.052834 33.435154 38.768772 57.212688 -8.993814 11.183488 -8.534408 -12.637552 60.804543 -1.132808 5.037776 3.169963 15.808406 -5.910884 -2.929578 -15.080107 16.675627 0.687915 10.434192 -5.554574 -6.510780 17.551096 5.836163 3.146155 -27.631199 -12.405141 -3.556643 
30.847872 53.304764 -3.416424 -6.282121 1.117412 -23.848232 27.504250 -1.268569 2.834048 -19.215899 0.853118 0.939578 -12.785782 2.844101 5.882070 4.592272 -7.724686 12.120737 0.736540 -9.814158 1.078738 -68.419830 -33.081253 16.700960 -59.336498 9.216234 12.107121 8.524705 12.647240 -18.020887 -3.299667 11.850037 1.750699 55.751656 33.979557 39.292439 58.008488 -9.085539 11.527613 -8.534408 -12.637552 60.951031 -0.986378 4.724874 3.128116 15.844125 -5.899376 -2.922034 -15.608133 16.646725 0.855304 10.423002 -5.915017 -6.657757 17.540588 5.835888 3.154966 -27.252871 -12.334335 -3.396674 
30.881437 53.302200 -3.427931 -6.371434 1.068222 -23.848835 27.582893 -1.134549 2.766121 -19.147642 0.744415 0.901959 -12.583983 2.229139 6.095760 4.021957 -6.457062 12.463634 0.736540 -9.814158 1.078738 -68.219391 -33.401855 17.104115 -60.379414 9.300259 12.566294 8.524705 12.647240 -17.610731 -3.299667 11.850037 1.750699 55.416763 34.417210 39.571205 58.933289 -9.182838 11.940738 -8.534408 -12.637552 61.214703 -0.742095 4.674460 3.177907 15.569403 -5.909576 -2.888792 -14.851061 16.882418 0.652968 10.415362 -5.945797 -6.672512 17.797211 5.836763 3.187706 -27.445675 -12.147107 -3.397913 
30.907013 53.311153 -3.445833 -6.400342 1.148063 -23.820396 27.565250 -1.140342 2.635998 -19.108608 0.714404 0.873266 -12.765582 2.084983 6.204829 4.112069 -5.778314 12.654234 0.736540 -9.814158 1.078738 -67.969627 -33.731792 17.707539 -61.274399 9.359758 12.971456 8.524705 12.647240 -17.132214 -3.299667 11.850037 1.750699 54.970131 34.808517 39.909714 59.890583 -9.266666 12.363004 -8.534408 -12.637552 61.722515 -0.703032 4.557764 3.110932 15.433468 -5.909699 -2.876430 -13.937155 17.075895 0.392218 10.255095 -6.050143 -6.691987 17.995371 5.824415 3.232776 -27.638708 -12.124462 -3.466603 
